<svg width="28" height="27" viewBox="0 0 28 27" fill="none" xmlns="http://www.w3.org/2000/svg">
<path d="M16.975 11.645L12.9588 7.62877C12.7948 7.4658 12.573 7.37433 12.3419 7.37433C12.1107 7.37433 11.889 7.4658 11.725 7.62877C11.643 7.71011 11.5779 7.80689 11.5335 7.91352C11.4891 8.02014 11.4662 8.13451 11.4662 8.25002C11.4662 8.36553 11.4891 8.4799 11.5335 8.58653C11.5779 8.69315 11.643 8.78993 11.725 8.87127L15.75 12.8788C15.832 12.9601 15.8971 13.0569 15.9415 13.1635C15.986 13.2701 16.0088 13.3845 16.0088 13.5C16.0088 13.6155 15.986 13.7299 15.9415 13.8365C15.8971 13.9432 15.832 14.0399 15.75 14.1213L11.725 18.1288C11.5602 18.2924 11.4672 18.5147 11.4664 18.7469C11.4656 18.9791 11.557 19.2021 11.7206 19.3669C11.8842 19.5317 12.1066 19.6247 12.3388 19.6255C12.571 19.6263 12.794 19.5349 12.9588 19.3713L16.975 15.355C17.4666 14.8628 17.7427 14.1956 17.7427 13.5C17.7427 12.8044 17.4666 12.1372 16.975 11.645Z" fill="#CE1212"/>
<rect x="1.5" y="1" width="25" height="25" rx="12.5" stroke="#CE1212" stroke-width="2"/>
</svg>
