<svg width="21" height="20" viewBox="0 0 21 20" fill="none" xmlns="http://www.w3.org/2000/svg">
<path d="M15.3123 0.676971C14.327 0.692297 13.3632 0.967343 12.5183 1.47433C11.6733 1.98132 10.977 2.70231 10.4998 3.56447C10.0227 2.70231 9.32641 1.98132 8.48142 1.47433C7.63644 0.967343 6.67264 0.692297 5.68734 0.676971C4.11666 0.745213 2.63683 1.43232 1.57115 2.58817C0.505469 3.74403 -0.0594403 5.27468 -0.000158566 6.84572C-0.000158566 10.8243 4.18759 15.1696 7.69984 18.1157C8.48403 18.7747 9.47553 19.136 10.4998 19.136C11.5242 19.136 12.5157 18.7747 13.2998 18.1157C16.8121 15.1696 20.9998 10.8243 20.9998 6.84572C21.0591 5.27468 20.4942 3.74403 19.4285 2.58817C18.3629 1.43232 16.883 0.745213 15.3123 0.676971ZM12.1755 16.777C11.7065 17.1719 11.113 17.3885 10.4998 17.3885C9.88668 17.3885 9.29323 17.1719 8.82422 16.777C4.32847 13.0048 1.74984 9.38585 1.74984 6.84572C1.69003 5.7386 2.07041 4.65274 2.80803 3.82496C3.54566 2.99718 4.58067 2.49465 5.68734 2.42697C6.79401 2.49465 7.82903 2.99718 8.56665 3.82496C9.30427 4.65274 9.68466 5.7386 9.62484 6.84572C9.62484 7.07779 9.71703 7.30035 9.88112 7.46444C10.0452 7.62853 10.2678 7.72072 10.4998 7.72072C10.7319 7.72072 10.9545 7.62853 11.1186 7.46444C11.2827 7.30035 11.3748 7.07779 11.3748 6.84572C11.315 5.7386 11.6954 4.65274 12.433 3.82496C13.1707 2.99718 14.2057 2.49465 15.3123 2.42697C16.419 2.49465 17.454 2.99718 18.1916 3.82496C18.9293 4.65274 19.3097 5.7386 19.2498 6.84572C19.2498 9.38585 16.6712 13.0048 12.1755 16.7735V16.777Z" fill="#EEEBDD"/>
</svg>
