<svg width="61" height="61" viewBox="0 0 61 61" fill="none" xmlns="http://www.w3.org/2000/svg">
<g clip-path="url(#clip0_1406_2288)">
<path d="M35.3123 21.677C34.327 21.6923 33.3632 21.9673 32.5183 22.4743C31.6733 22.9813 30.977 23.7023 30.4998 24.5645C30.0227 23.7023 29.3264 22.9813 28.4814 22.4743C27.6364 21.9673 26.6726 21.6923 25.6873 21.677C24.1167 21.7452 22.6368 22.4323 21.5712 23.5882C20.5055 24.744 19.9406 26.2747 19.9998 27.8457C19.9998 31.8243 24.1876 36.1696 27.6998 39.1157C28.484 39.7747 29.4755 40.136 30.4998 40.136C31.5242 40.136 32.5157 39.7747 33.2998 39.1157C36.8121 36.1696 40.9998 31.8243 40.9998 27.8457C41.0591 26.2747 40.4942 24.744 39.4285 23.5882C38.3629 22.4323 36.883 21.7452 35.3123 21.677ZM32.1755 37.777C31.7065 38.1719 31.113 38.3885 30.4998 38.3885C29.8867 38.3885 29.2932 38.1719 28.8242 37.777C24.3285 34.0048 21.7498 30.3858 21.7498 27.8457C21.69 26.7386 22.0704 25.6527 22.808 24.825C23.5457 23.9972 24.5807 23.4947 25.6873 23.427C26.794 23.4947 27.829 23.9972 28.5666 24.825C29.3043 25.6527 29.6847 26.7386 29.6248 27.8457C29.6248 28.0778 29.717 28.3003 29.8811 28.4644C30.0452 28.6285 30.2678 28.7207 30.4998 28.7207C30.7319 28.7207 30.9545 28.6285 31.1186 28.4644C31.2827 28.3003 31.3748 28.0778 31.3748 27.8457C31.315 26.7386 31.6954 25.6527 32.433 24.825C33.1707 23.9972 34.2057 23.4947 35.3123 23.427C36.419 23.4947 37.454 23.9972 38.1916 24.825C38.9293 25.6527 39.3097 26.7386 39.2498 27.8457C39.2498 30.3858 36.6712 34.0048 32.1755 37.7735V37.777Z" fill="#EEEBDD"/>
</g>
<rect x="1" y="1" width="59" height="59" rx="29.5" stroke="#EEEBDD" stroke-width="2"/>
<defs>
<clipPath id="clip0_1406_2288">
<rect width="21" height="21" fill="white" transform="translate(20 20)"/>
</clipPath>
</defs>
</svg>
