<svg width="32" height="32" viewBox="0 0 32 32" fill="none" xmlns="http://www.w3.org/2000/svg">
<path d="M27.5998 6.29869L29.7264 8.42403C29.9129 8.60937 30.15 8.73546 30.4079 8.78645C30.6658 8.83743 30.933 8.81104 31.1759 8.71058C31.4189 8.61013 31.6267 8.44009 31.7733 8.22186C31.9199 8.00362 31.9987 7.74692 31.9998 7.48403V1.35069C31.9998 0.997072 31.8593 0.657934 31.6092 0.407885C31.3592 0.157837 31.0201 0.017361 30.6664 0.017361H24.5238C24.2607 0.0179412 24.0036 0.0963589 23.7849 0.24274C23.5663 0.389121 23.3959 0.596921 23.2951 0.839974C23.1943 1.08303 23.1677 1.35047 23.2186 1.60862C23.2695 1.86677 23.3956 2.10409 23.5811 2.29069L25.7144 4.41736L15.9998 14.116L6.27844 4.40003L8.41844 2.26669C8.60531 2.0803 8.73265 1.84263 8.78434 1.5838C8.83603 1.32497 8.80973 1.05662 8.70878 0.812743C8.60783 0.568869 8.43678 0.360442 8.21728 0.213864C7.99778 0.0672866 7.73971 -0.010847 7.47577 -0.010639L1.3331 -0.0133057C0.979483 -0.0133057 0.640344 0.12717 0.390296 0.377219C0.140247 0.627267 -0.000228754 0.966406 -0.000228754 1.32003V7.45336C-0.00149947 7.71792 0.0759618 7.97687 0.222299 8.19728C0.368636 8.41768 0.577233 8.58957 0.821548 8.69107C1.06586 8.79257 1.33485 8.81909 1.59428 8.76727C1.85372 8.71544 2.09187 8.5876 2.27844 8.40003L4.39977 6.28536L14.1158 16L4.40644 25.7014L2.2731 23.5747C2.08658 23.3893 1.84938 23.2632 1.59135 23.2122C1.33333 23.1613 1.066 23.1878 0.822998 23.2884C0.579998 23.389 0.372185 23.5593 0.225703 23.7777C0.0792205 23.9961 0.000613452 24.253 -0.000228754 24.516V30.6494C-0.000228754 31.003 0.140247 31.3421 0.390296 31.5922C0.640344 31.8422 0.979483 31.9827 1.3331 31.9827H7.47577C7.73753 31.9808 7.99296 31.902 8.21019 31.7559C8.42743 31.6099 8.59687 31.4031 8.69739 31.1614C8.79791 30.9197 8.82506 30.6538 8.77545 30.3967C8.72585 30.1397 8.60168 29.903 8.41844 29.716L6.29177 27.5854L15.9998 17.884L25.7091 27.584L23.5758 29.7174C23.3925 29.9043 23.2684 30.141 23.2188 30.3981C23.1691 30.6551 23.1963 30.921 23.2968 31.1627C23.3973 31.4044 23.5668 31.6112 23.784 31.7572C24.0013 31.9033 24.2567 31.9822 24.5184 31.984H30.6584C31.0121 31.984 31.3512 31.8436 31.6012 31.5935C31.8513 31.3435 31.9918 31.0043 31.9918 30.6507V24.5174C31.9917 24.2537 31.9135 23.996 31.767 23.7768C31.6205 23.5575 31.4122 23.3867 31.1686 23.2858C30.925 23.1849 30.657 23.1585 30.3984 23.2099C30.1398 23.2613 29.9022 23.3883 29.7158 23.5747L27.5998 25.7L17.8851 16L27.5998 6.29869Z" fill="#CE1212"/>
</svg>
