<svg width="18" height="21" viewBox="0 0 18 21" fill="none" xmlns="http://www.w3.org/2000/svg">
<path d="M15.9322 6.972L7.58475 0.847004C6.93278 0.369591 6.16132 0.0820742 5.35592 0.0163345C4.55052 -0.0494051 3.74265 0.109201 3.02188 0.474567C2.30112 0.839932 1.69563 1.39778 1.27255 2.08625C0.849472 2.77473 0.625338 3.56693 0.625 4.375V16.625C0.625144 17.4334 0.849291 18.226 1.27257 18.9148C1.69584 19.6036 2.30169 20.1616 3.02287 20.527C3.74405 20.8923 4.55236 21.0507 5.35809 20.9845C6.16382 20.9184 6.93546 20.6302 7.58737 20.1521L15.9349 14.0271C16.489 13.6208 16.9396 13.0896 17.2502 12.4767C17.5608 11.8637 17.7226 11.1863 17.7226 10.4991C17.7226 9.81199 17.5608 9.13451 17.2502 8.52158C16.9396 7.90864 16.489 7.37748 15.9349 6.97113L15.9322 6.972ZM14.8962 12.6158L6.54875 18.7408C6.15764 19.0266 5.69507 19.1986 5.21225 19.2377C4.72943 19.2769 4.24519 19.1817 3.81312 18.9627C3.38106 18.7437 3.01802 18.4094 2.7642 17.9968C2.51038 17.5842 2.37568 17.1094 2.375 16.625V4.375C2.37014 3.88968 2.50231 3.41284 2.7563 2.99926C3.0103 2.58569 3.37582 2.25216 3.81087 2.037C4.18091 1.84878 4.5901 1.75046 5.00525 1.75C5.56166 1.75213 6.10269 1.93278 6.54875 2.26538L14.8962 8.39038C15.2283 8.63424 15.4983 8.95283 15.6844 9.32039C15.8705 9.68795 15.9675 10.0941 15.9675 10.5061C15.9675 10.9181 15.8705 11.3243 15.6844 11.6919C15.4983 12.0594 15.2283 12.378 14.8962 12.6219V12.6158Z" fill="#EEEBDD"/>
</svg>
