<svg width="21" height="22" viewBox="0 0 21 22" fill="none" xmlns="http://www.w3.org/2000/svg">
<path d="M20.7433 20.007L15.5204 14.7841C16.9437 13.0434 17.6435 10.8222 17.4751 8.57999C17.3066 6.33777 16.2828 4.24608 14.6153 2.73758C12.9479 1.22907 10.7645 0.419151 8.51662 0.475353C6.26879 0.531556 4.12855 1.44958 2.5386 3.03953C0.948645 4.62949 0.0306236 6.76973 -0.0255793 9.01756C-0.0817821 11.2654 0.728134 13.4488 2.23664 15.1163C3.74515 16.7837 5.83684 17.8075 8.07905 17.976C10.3213 18.1445 12.5425 17.4447 14.2832 16.0214L19.5061 21.2442C19.6711 21.4036 19.8921 21.4918 20.1215 21.4898C20.351 21.4878 20.5704 21.3958 20.7327 21.2336C20.8949 21.0714 20.9869 20.8519 20.9889 20.6225C20.9909 20.3931 20.9027 20.172 20.7433 20.007ZM8.74969 16.2506C7.36522 16.2506 6.01184 15.8401 4.8607 15.0709C3.70955 14.3017 2.81234 13.2085 2.28253 11.9294C1.75272 10.6503 1.61409 9.24286 1.88419 7.88499C2.15429 6.52712 2.82097 5.27984 3.79994 4.30087C4.77891 3.3219 6.02619 2.65522 7.38406 2.38512C8.74192 2.11503 10.1494 2.25365 11.4285 2.78346C12.7076 3.31328 13.8008 4.21048 14.57 5.36163C15.3391 6.51277 15.7497 7.86615 15.7497 9.25062C15.7476 11.1065 15.0094 12.8858 13.6971 14.1981C12.3848 15.5104 10.6056 16.2485 8.74969 16.2506Z" fill="#EEEBDD"/>
</svg>
