<svg width="61" height="61" viewBox="0 0 61 61" fill="none" xmlns="http://www.w3.org/2000/svg">
<g clip-path="url(#clip0_127_208)">
<path d="M36.9162 32.8336C36.2546 32.8342 35.6031 32.9957 35.0179 33.3042C34.4326 33.6128 33.9313 34.0591 33.557 34.6046L27.8617 32.033C28.2662 31.0562 28.2678 29.959 27.866 28.981L33.5535 26.3963C34.1082 27.1984 34.9319 27.7752 35.8754 28.022C36.8189 28.2689 37.8196 28.1694 38.696 27.7416C39.5724 27.3138 40.2665 26.586 40.6523 25.6904C41.0381 24.7947 41.0901 23.7904 40.7989 22.8597C40.5076 21.9289 39.8925 21.1334 39.0649 20.6174C38.2374 20.1013 37.2523 19.899 36.2884 20.0471C35.3245 20.1951 34.4455 20.6837 33.811 21.4243C33.1765 22.1649 32.8284 23.1084 32.8299 24.0836C32.8336 24.3145 32.857 24.5445 32.8999 24.7714L26.8537 27.5189C26.273 26.9748 25.546 26.6122 24.762 26.4757C23.9781 26.3391 23.1713 26.4345 22.4409 26.7502C21.7104 27.0658 21.088 27.5879 20.6503 28.2524C20.2125 28.9169 19.9783 29.6948 19.9766 30.4906C19.9748 31.2863 20.2056 32.0653 20.6404 32.7317C21.0753 33.3981 21.6953 33.923 22.4244 34.2418C23.1535 34.5607 23.9598 34.6596 24.7444 34.5265C25.5289 34.3934 26.2575 34.034 26.8405 33.4925L32.9025 36.2295C32.8604 36.4561 32.8373 36.6859 32.8334 36.9164C32.8332 37.7241 33.0726 38.5138 33.5213 39.1854C33.9699 39.8571 34.6077 40.3807 35.3539 40.6899C36.1001 40.9991 36.9213 41.08 37.7135 40.9225C38.5057 40.7649 39.2334 40.376 39.8046 39.8048C40.3758 39.2337 40.7647 38.5059 40.9222 37.7137C41.0798 36.9215 40.9988 36.1003 40.6896 35.3541C40.3805 34.6079 39.8569 33.9701 39.1852 33.5215C38.5135 33.0728 37.7239 32.8335 36.9162 32.8336ZM36.9162 21.75C37.3777 21.7498 37.829 21.8865 38.2129 22.1429C38.5968 22.3992 38.896 22.7636 39.0728 23.19C39.2495 23.6164 39.2959 24.0856 39.2059 24.5384C39.116 24.9911 38.8938 25.407 38.5675 25.7334C38.2411 26.0599 37.8253 26.2822 37.3726 26.3723C36.9199 26.4625 36.4507 26.4163 36.0242 26.2397C35.5977 26.0631 35.2332 25.764 34.9768 25.3802C34.7203 24.9964 34.5834 24.5452 34.5834 24.0836C34.5839 23.465 34.8298 22.8718 35.2671 22.4343C35.7045 21.9968 36.2975 21.7507 36.9162 21.75ZM24.0834 32.8336C23.6218 32.8338 23.1706 32.6971 22.7867 32.4408C22.4028 32.1845 22.1036 31.82 21.9268 31.3936C21.75 30.9673 21.7037 30.498 21.7936 30.0453C21.8836 29.5925 22.1058 29.1766 22.4321 28.8502C22.7584 28.5237 23.1742 28.3014 23.6269 28.2113C24.0797 28.1212 24.5489 28.1673 24.9754 28.3439C25.4018 28.5205 25.7664 28.8196 26.0228 29.2034C26.2793 29.5872 26.4162 30.0384 26.4162 30.5C26.4155 31.1186 26.1695 31.7116 25.7322 32.149C25.2949 32.5865 24.702 32.8327 24.0834 32.8336ZM36.9162 39.25C36.4546 39.25 36.0034 39.1131 35.6197 38.8567C35.2359 38.6003 34.9368 38.2358 34.7602 37.8094C34.5835 37.383 34.5373 36.9138 34.6274 36.4611C34.7174 36.0084 34.9397 35.5926 35.266 35.2663C35.5924 34.9399 36.0082 34.7176 36.4609 34.6276C36.9136 34.5375 37.3828 34.5838 37.8092 34.7604C38.2356 34.937 38.6001 35.2361 38.8565 35.6199C39.1129 36.0036 39.2498 36.4548 39.2498 36.9164C39.2493 37.5352 39.0033 38.1285 38.5658 38.566C38.1282 39.0035 37.5349 39.2495 36.9162 39.25Z" fill="#EEEBDD"/>
</g>
<rect x="1" y="1" width="59" height="59" rx="29.5" stroke="#EEEBDD" stroke-width="2"/>
<defs>
<clipPath id="clip0_127_208">
<rect width="21" height="21" fill="white" transform="translate(20 20)"/>
</clipPath>
</defs>
</svg>
