<svg width="21" height="21" viewBox="0 0 21 21" fill="none" xmlns="http://www.w3.org/2000/svg">
<path d="M16.9164 12.8337C16.2548 12.8342 15.6033 12.9957 15.0181 13.3042C14.4329 13.6128 13.9315 14.0591 13.5573 14.6047L7.86191 12.033C8.26643 11.0562 8.268 9.95901 7.86628 8.98103L13.5538 6.39628C14.1084 7.19845 14.9322 7.77525 15.8757 8.02207C16.8192 8.2689 17.8199 8.16939 18.6963 7.7416C19.5727 7.31381 20.2667 6.58607 20.6525 5.69039C21.0383 4.79471 21.0903 3.79042 20.7991 2.85969C20.5079 1.92895 19.8927 1.13342 19.0652 0.617394C18.2376 0.101371 17.2526 -0.100966 16.2886 0.0470875C15.3247 0.195141 14.4458 0.683777 13.8112 1.42436C13.1767 2.16495 12.8286 3.10842 12.8302 4.08366C12.8339 4.31448 12.8573 4.54457 12.9002 4.77141L6.85391 7.51891C6.27321 6.97485 5.54623 6.61227 4.76229 6.4757C3.97834 6.33913 3.17158 6.43454 2.44112 6.75018C1.71065 7.06583 1.08829 7.58798 0.650504 8.25248C0.212716 8.91697 -0.0214351 9.69488 -0.0231835 10.4906C-0.0249319 11.2864 0.205799 12.0653 0.640663 12.7317C1.07553 13.3981 1.69558 13.923 2.42466 14.2419C3.15373 14.5607 3.96006 14.6597 4.7446 14.5265C5.52913 14.3934 6.25769 14.034 6.84078 13.4925L12.9028 16.2295C12.8607 16.4562 12.8376 16.6859 12.8337 16.9164C12.8335 17.7241 13.0729 18.5138 13.5215 19.1855C13.9702 19.8572 14.6079 20.3807 15.3541 20.6899C16.1004 20.9991 16.9215 21.08 17.7137 20.9225C18.506 20.7649 19.2337 20.376 19.8048 19.8048C20.376 19.2337 20.7649 18.506 20.9225 17.7137C21.08 16.9215 20.9991 16.1004 20.6899 15.3541C20.3807 14.6079 19.8572 13.9702 19.1855 13.5215C18.5138 13.0729 17.7241 12.8335 16.9164 12.8337ZM16.9164 1.75003C17.378 1.74986 17.8293 1.88658 18.2131 2.14289C18.597 2.39921 18.8963 2.76361 19.073 3.19001C19.2498 3.61641 19.2961 4.08565 19.2062 4.53839C19.1162 4.99113 18.894 5.40702 18.5677 5.73347C18.2414 6.05992 17.8256 6.28227 17.3729 6.37238C16.9202 6.46249 16.4509 6.41633 16.0244 6.23973C15.598 6.06313 15.2335 5.76402 14.977 5.38024C14.7205 4.99646 14.5837 4.54524 14.5837 4.08366C14.5841 3.46504 14.83 2.87187 15.2674 2.43436C15.7047 1.99684 16.2978 1.75073 16.9164 1.75003ZM4.08366 12.8337C3.62207 12.8338 3.1708 12.6971 2.78693 12.4408C2.40305 12.1845 2.10381 11.8201 1.92705 11.3937C1.75028 10.9673 1.70395 10.498 1.79389 10.0453C1.88384 9.59257 2.10602 9.17667 2.43235 8.85022C2.75868 8.52377 3.17449 8.30143 3.62719 8.21131C4.0799 8.1212 4.54915 8.16736 4.97562 8.34396C5.40209 8.52056 5.7666 8.81967 6.02306 9.20345C6.27952 9.58723 6.41641 10.0384 6.41641 10.5C6.41571 11.1186 6.16975 11.7116 5.73245 12.1491C5.29515 12.5865 4.70221 12.8327 4.08366 12.8337ZM16.9164 19.25C16.4549 19.25 16.0037 19.1132 15.6199 18.8567C15.2362 18.6003 14.937 18.2359 14.7604 17.8095C14.5838 17.383 14.5376 16.9138 14.6276 16.4611C14.7177 16.0085 14.9399 15.5927 15.2663 15.2663C15.5926 14.9399 16.0085 14.7177 16.4611 14.6276C16.9138 14.5376 17.383 14.5838 17.8094 14.7604C18.2359 14.937 18.6003 15.2362 18.8567 15.6199C19.1132 16.0037 19.25 16.4549 19.25 16.9164C19.2496 17.5352 19.0036 18.1285 18.566 18.566C18.1285 19.0036 17.5352 19.2496 16.9164 19.25Z" fill="#EEEBDD"/>
</svg>
