<svg width="14" height="15" viewBox="0 0 14 15" fill="none" xmlns="http://www.w3.org/2000/svg">
<path d="M0.774074 7.75837L2.85074 9.27504L2.06207 11.7175C1.93462 12.0963 1.93301 12.5061 2.05747 12.8859C2.18193 13.2657 2.42581 13.5951 2.75274 13.825C3.07407 14.0623 3.46347 14.1894 3.86291 14.1874C4.26236 14.1855 4.65047 14.0544 4.96941 13.814L6.99999 12.3195L9.03116 13.8122C9.35191 14.0481 9.7392 14.1763 10.1374 14.1782C10.5355 14.1802 10.9241 14.0558 11.2471 13.823C11.5701 13.5902 11.811 13.261 11.9352 12.8826C12.0593 12.5043 12.0602 12.0964 11.9379 11.7175L11.1492 9.27504L13.2259 7.75837C13.5462 7.52417 13.7844 7.19473 13.9063 6.8171C14.0282 6.43947 14.0276 6.03298 13.9047 5.65568C13.7818 5.27838 13.5428 4.94958 13.2218 4.71623C12.9009 4.48289 12.5144 4.35694 12.1176 4.35637H9.56666L8.79257 1.94371C8.67085 1.56393 8.43165 1.23263 8.10947 0.997577C7.7873 0.762523 7.3988 0.635864 6.99999 0.635864C6.60118 0.635864 6.21268 0.762523 5.89051 0.997577C5.56833 1.23263 5.32914 1.56393 5.20741 1.94371L4.43332 4.35637H1.88474C1.48792 4.35694 1.10144 4.48289 0.780479 4.71623C0.459522 4.94958 0.220514 5.27838 0.0975946 5.65568C-0.025325 6.03298 -0.0258691 6.43947 0.0960401 6.8171C0.217949 7.19473 0.456076 7.52417 0.776407 7.75837H0.774074Z" fill="#FFD200"/>
</svg>
